<?xml version="1.0" encoding="UTF-8"?>
<svg id="Layer_2" data-name="Layer 2" xmlns="http://www.w3.org/2000/svg" viewBox="0 0 1354.32 311.99">
  <defs>
    <style>
      .cls-1 {
        fill: #16efa7;
      }

      .cls-1, .cls-2, .cls-3 {
        stroke-width: 0px;
      }

      .cls-2 {
        fill: #121d57;
      }

      .cls-3 {
        fill: #1386ef;
      }
    </style>
  </defs>
  <g id="_Слой_1" data-name="Слой 1">
    <g>
      <g>
        <path class="cls-2" d="M477.12,87.01v18.11c-10.61-13.75-26.26-20.63-47.04-20.63-23.52,0-41.99,7.57-55.45,22.71s-20.19,35.11-20.19,59.88,6.8,44.77,20.34,59.91c13.57,15.14,32.22,22.71,55.93,22.71,9.99,0,19.17-1.83,27.65-5.56,8.49-3.69,14.74-8.63,18.76-14.78v51.5h-100.44v31.13h106.48c10.39,0,18.47-2.93,24.29-8.74,5.85-5.82,8.74-13.94,8.74-24.29V87.01h-39.06ZM467.72,202.7c-7.94,8.89-18.47,13.31-31.6,13.31s-23.3-4.43-31.13-13.31c-7.86-8.92-11.78-20.78-11.78-35.63s3.91-26.66,11.78-35.59c7.83-8.89,18.22-13.31,31.13-13.31s23.67,4.43,31.6,13.31c7.97,8.92,11.92,20.78,11.92,35.59s-3.95,26.7-11.92,35.63Z"/>
        <path class="cls-2" d="M659.57,87.01v18.11c-10.61-13.75-26.26-20.63-47.04-20.63-23.52,0-41.99,7.57-55.45,22.71-13.46,15.14-20.19,35.11-20.19,59.88s6.8,44.77,20.34,59.91c13.57,15.14,32.22,22.71,55.93,22.71,9.95,0,19.17-1.83,27.65-5.56,8.49-3.69,14.74-8.63,18.76-14.78v51.5h-100.44v31.13h106.48c10.35,0,18.47-2.93,24.29-8.74,5.85-5.82,8.74-13.94,8.74-24.29V87.01h-39.06ZM650.17,202.7c-7.94,8.89-18.47,13.31-31.6,13.31s-23.3-4.43-31.13-13.31c-7.86-8.92-11.78-20.78-11.78-35.63s3.91-26.66,11.78-35.59c7.83-8.89,18.22-13.31,31.13-13.31s23.66,4.43,31.6,13.31c7.97,8.92,11.92,20.78,11.92,35.59s-3.95,26.7-11.92,35.63Z"/>
        <path class="cls-2" d="M830.86,24.71l-28.31,36.25h67.05V24.71h-38.73ZM693.25,24.71v36.25h67.34v186.22h41.95V24.71h-109.29Z"/>
        <path class="cls-2" d="M968.76,193.78c-4.24,15.69-16.64,23.52-37.2,23.52-12.29,0-22.35-3.8-30.18-11.45-7.83-7.61-12.51-17.89-13.97-30.8h118.22c.4-4.24.62-8.71.62-13.35,0-21-6.66-39.1-20.01-54.35-13.35-15.25-32.63-22.86-57.83-22.86s-44.08,7.97-57.87,23.99c-13.75,15.98-20.63,35.3-20.63,57.98s7.35,41.95,22.06,58.49c14.74,16.5,34.6,24.76,59.58,24.76,19.72,0,36.47-5.08,50.22-15.25,13.79-10.17,22.13-23.7,25.09-40.67h-38.11ZM928.41,113.71c11.23,0,20.26,3.29,27.14,9.84,6.91,6.58,10.75,15.14,11.59,25.75h-78.79c4.02-23.74,17.37-35.59,40.05-35.59Z"/>
        <path class="cls-2" d="M1144.4,189.64c-2.12,8.08-6.47,14.48-13.06,19.24-6.55,4.76-14.48,7.13-23.81,7.13-13.35,0-23.74-4.54-31.13-13.64-7.43-9.11-11.16-20.89-11.16-35.3s3.66-26.15,10.97-35.26c7.32-9.11,17.63-13.64,30.98-13.64,9.33,0,17.45,2.6,24.32,7.75,6.88,5.19,10.97,11.74,12.22,19.57h39.1c-1.68-18.22-9.8-32.96-24.32-44.19-14.52-11.23-31.93-16.83-52.27-16.83-24.58,0-44.26,7.9-59.11,23.67-14.81,15.76-22.24,35.44-22.24,58.93s7.43,43.2,22.24,58.96c14.85,15.8,34.53,23.67,59.11,23.67,20.34,0,37.71-5.6,52.12-16.83,14.41-11.23,22.79-25.64,25.09-43.23h-39.07Z"/>
        <path class="cls-2" d="M1337.97,102.11c-10.94-11.78-25.28-17.63-43.09-17.63-11.41,0-21.54,2.38-30.32,7.13-8.81,4.76-15.33,11.49-19.57,20.19V24.71h-39.06v222.46h39.06v-87.38c0-11.89,3.44-21.62,10.35-29.26,6.88-7.61,15.73-11.41,26.52-11.41,9.95,0,18.07,3.44,24.32,10.31,6.26,6.88,9.36,15.84,9.36,26.85v90.9h38.77v-99.16c0-18.84-5.45-34.16-16.35-45.9Z"/>
      </g>
      <g>
        <path class="cls-3" d="M67.41,138.45l96.81,138.48h-70.77L2.73,147.13c-3.64-5.21-3.64-12.15,0-17.36L93.44,0h70.77l-96.81,138.45Z"/>
        <polygon class="cls-1" points="227.49 154.63 141.99 154.63 184.73 93.47 184.76 93.47 227.49 154.63"/>
        <path class="cls-3" d="M292.85,162.29l-80.11,114.64h-70.75l85.5-122.31-42.74-61.15h70.72l37.38,53.49c3.22,4.6,3.22,10.73,0,15.33Z"/>
      </g>
    </g>
  </g>
</svg>